<svg width="0" height="0" class="hidden">
    <symbol fill="none" xmlns="http://www.w3.org/2000/svg" viewBox="0 0 24 24" id="theme-dark">
        <path opacity="0.5"
              d="M12 22C17.5228 22 22 17.5228 22 12C22 11.5373 21.3065 11.4608 21.0672 11.8568C19.9289 13.7406 17.8615 15 15.5 15C11.9101 15 9 12.0899 9 8.5C9 6.13845 10.2594 4.07105 12.1432 2.93276C12.5392 2.69347 12.4627 2 12 2C6.47715 2 2 6.47715 2 12C2 17.5228 6.47715 22 12 22Z"
              fill="var(--primary)"/>
        <path d="M11.2857 22C13.3371 22 15 20.4198 15 18.4706C15 16.9257 13.9554 15.6126 12.5008 15.1344C12.2941 13.3711 10.7203 12 8.80952 12C6.75818 12 5.09524 13.5802 5.09524 15.5294C5.09524 15.9605 5.17659 16.3736 5.3255 16.7555C5.15087 16.723 4.97039 16.7059 4.78571 16.7059C3.24721 16.7059 2 17.891 2 19.3529C2 20.8149 3.24721 22 4.78571 22H11.2857Z"
              fill="var(--primary)"/>
    </symbol>
    <symbol fill="none" xmlns="http://www.w3.org/2000/svg" viewBox="0 0 24 24" id="theme-light">
        <path opacity="0.5"
              d="M11.5 8C11.5 9.933 9.933 11.5 8 11.5C6.067 11.5 4.5 9.933 4.5 8C4.5 6.067 6.067 4.5 8 4.5C9.933 4.5 11.5 6.067 11.5 8Z"
              fill="var(--primary)"/>
        <g opacity="0.5">
            <path fill-rule="evenodd" clip-rule="evenodd"
                  d="M7.5 1.25C7.91421 1.25 8.25 1.58579 8.25 2V2.5C8.25 2.91421 7.91421 3.25 7.5 3.25C7.08579 3.25 6.75 2.91421 6.75 2.5V2C6.75 1.58579 7.08579 1.25 7.5 1.25ZM3.08086 3.08059C3.37375 2.78769 3.84862 2.78769 4.14152 3.08059L4.35758 3.29665C4.65047 3.58954 4.65047 4.06441 4.35758 4.35731C4.06468 4.6502 3.58981 4.6502 3.29692 4.35731L3.08086 4.14125C2.78796 3.84835 2.78796 3.37348 3.08086 3.08059ZM11.919 3.08073C12.2119 3.37362 12.2119 3.8485 11.919 4.14139L11.7029 4.35745C11.41 4.65034 10.9352 4.65034 10.6423 4.35745C10.3494 4.06456 10.3494 3.58968 10.6423 3.29679L10.8583 3.08073C11.1512 2.78784 11.6261 2.78784 11.919 3.08073ZM1.25 7.5C1.25 7.08579 1.58579 6.75 2 6.75H2.5C2.91421 6.75 3.25 7.08579 3.25 7.5C3.25 7.91421 2.91421 8.25 2.5 8.25H2C1.58579 8.25 1.25 7.91421 1.25 7.5ZM4.35758 10.6427C4.65047 10.9356 4.65047 11.4105 4.35758 11.7034L4.14152 11.9194C3.84862 12.2123 3.37375 12.2123 3.08086 11.9194C2.78796 11.6265 2.78796 11.1516 3.08086 10.8588L3.29692 10.6427C3.58981 10.3498 4.06468 10.3498 4.35758 10.6427Z"
                  fill="var(--primary)"/>
        </g>
        <path d="M16.2857 22C19.4416 22 22 19.4717 22 16.3529C22 13.8811 20.393 11.7802 18.1551 11.015C17.8371 8.19371 15.4159 6 12.4762 6C9.32028 6 6.7619 8.52827 6.7619 11.6471C6.7619 12.3369 6.88706 12.9978 7.11616 13.6089C6.8475 13.5567 6.56983 13.5294 6.28571 13.5294C3.91878 13.5294 2 15.4256 2 17.7647C2 20.1038 3.91878 22 6.28571 22H16.2857Z"
              fill="var(--primary)"/>
    </symbol>
</svg>
